<svg xmlns="http://www.w3.org/2000/svg" width="16" height="16.617" viewBox="0 0 16 16.617"><defs><style>.a{fill:#ccc;}</style></defs><g transform="translate(-4.857)"><g transform="translate(4.857)"><path class="a" d="M16.464,152.427H9.25a4.4,4.4,0,0,0-4.393,4.393v2.538h16V156.82A4.4,4.4,0,0,0,16.464,152.427ZM19.9,158.4H5.81V156.82A3.443,3.443,0,0,1,9.25,153.38h7.215A3.443,3.443,0,0,1,19.9,156.82V158.4Z" transform="translate(-4.857 -142.74)"/><path class="a" d="M62.69,9.236a4.618,4.618,0,1,0-4.618-4.618A4.623,4.623,0,0,0,62.69,9.236Zm0-8.283a3.665,3.665,0,1,1-3.665,3.665A3.669,3.669,0,0,1,62.69.953Z" transform="translate(-54.69 0)"/></g></g></svg>